<?xml version="1.0" encoding="UTF-8" standalone="no"?>
<svg
   xmlns:dc="http://purl.org/dc/elements/1.1/"
   xmlns:cc="http://creativecommons.org/ns#"
   xmlns:rdf="http://www.w3.org/1999/02/22-rdf-syntax-ns#"
   xmlns:svg="http://www.w3.org/2000/svg"
   xmlns="http://www.w3.org/2000/svg"
   xmlns:sodipodi="http://sodipodi.sourceforge.net/DTD/sodipodi-0.dtd"
   xmlns:inkscape="http://www.inkscape.org/namespaces/inkscape"
   version="1.1"
   id="svg2"
   xml:space="preserve"
   width="132.28"
   height="166.29333"
   viewBox="0 0 132.28 166.29333"
   sodipodi:docname="Logo_3.eps"><metadata
     id="metadata8"><rdf:RDF><cc:Work
         rdf:about=""><dc:format>image/svg+xml</dc:format><dc:type
           rdf:resource="http://purl.org/dc/dcmitype/StillImage" /></cc:Work></rdf:RDF></metadata><defs
     id="defs6" /><sodipodi:namedview
     pagecolor="#ffffff"
     bordercolor="#666666"
     borderopacity="1"
     objecttolerance="10"
     gridtolerance="10"
     guidetolerance="10"
     inkscape:pageopacity="0"
     inkscape:pageshadow="2"
     inkscape:window-width="640"
     inkscape:window-height="480"
     id="namedview4" /><g
     id="g10"
     inkscape:groupmode="layer"
     inkscape:label="ink_ext_XXXXXX"
     transform="matrix(1.3333333,0,0,-1.3333333,0,166.29333)"><g
       id="g12"
       transform="scale(0.1)"><path
         d="m 592.77,464.066 c -4.747,-5.554 -12.375,-7.191 -19.469,-9.832 -7.821,-3.355 -45.836,-6.086 -46.461,-6.511 -18.027,0.078 -36.031,-0.559 -54.102,0.961 -10.101,0.847 -19.847,3.269 -29.769,4.703 -8.875,1.281 -32.797,9.847 -36.977,11.285 -5.972,2.058 -12.07,4.172 -17.437,7.441 -5.766,3.512 -11.145,7.364 -15.883,11.77 -5.34,4.965 -11.141,9.562 -16.176,14.785 -5.867,6.082 -10.816,12.59 -16.082,18.973 -9.133,11.078 -13.23,23.687 -18.894,35.695 -8.192,16.258 -12.934,71.328 -12.915,85.711 0.008,5.473 -0.546,32.316 -0.242,40.238 0.469,12.317 0.164,76.442 -0.519,84.52 -0.528,6.215 -1.586,12.504 -6.559,17.773 -0.957,1.012 -0.805,1.688 -0.359,2.633 2.558,5.402 6.437,7.344 13.215,6.562 6.98,-0.804 10.89,-4.171 12.535,-9.648 2.062,-6.855 3.648,-13.687 3.707,-20.719 0.015,-2.027 0.465,-3.593 4.547,-3.39 11.929,0.597 23.961,0.254 35.941,0.386 15.891,0.274 39.012,-6.066 48.5,-9.738 8.184,-3.168 25.348,-18.508 27.402,-21.789 2.25,-3.586 3.329,-7.309 4.567,-11 3.289,-9.812 3.867,-19.773 3.808,-29.859 -0.039,-7.055 -0.558,-64.039 -1.39,-74.407 -0.895,-11.132 -1.879,-22.246 -2.039,-33.429 -0.102,-7.293 2.269,-9.328 11.039,-9.684 12.238,-0.496 24.5,-0.793 36.719,-1.062 5.5,-0.125 11.339,0 17.007,0.48 3.633,0.313 8.668,0.848 11.614,-2.121 3.082,-3.105 3.64,-6.82 1.754,-10.691 -1.528,-3.133 -4.336,-4.172 -7.997,-3.762 -9.89,1.117 -19.726,1.254 -29.625,0.859 -12.722,-0.504 -25.402,0.293 -38.156,1.797 -6.031,0.711 -11.289,1.961 -16.457,4.492 -4.203,2.059 -7.527,6.805 -7.281,10.766 0.23,3.68 1.422,23.723 1.43,30.246 0.007,9.297 1.285,18.539 1.738,27.762 0.512,10.465 2.18,65.328 1.32,72.218 0.879,14.809 -10.047,26.219 -14.285,29.368 -5.098,3.793 -20.543,7.507 -22.109,7.984 -13.559,4.102 -62.2,5.273 -66.668,4.316 -3.246,-0.695 -2.645,-3.82 -2.535,-5.734 0.535,-9.422 0.234,-64.062 0.468,-69.094 0.309,-6.586 -0.039,-13.172 0.192,-19.757 0.218,-6.27 0.879,-12.543 1.23,-18.817 0.992,-17.73 2.977,-35.414 6,-53.043 1.676,-9.769 6.391,-18.898 10.348,-28.191 4.914,-11.539 12.094,-22.137 20.906,-31.934 3.781,-4.203 22.488,-21.59 28.68,-25.5 10.097,-6.379 20.926,-11.422 32.769,-15.082 8.578,-2.652 17.028,-5.453 26.024,-7.07 14.086,-2.531 28.273,-3.649 42.461,-3.578 14.504,0.074 28.98,0.949 43.425,1.8 6.727,0.399 25.083,2.219 42.993,6.973 6.336,1.684 7.543,-3.773 8.082,-5.437 -0.012,-0.539 -0.024,-1.079 -0.035,-1.618"
         style="fill:#ffffff;fill-opacity:1;fill-rule:nonzero;stroke:none"
         id="path14" /><path
         d="m 773.887,864.07 c -14.985,5.332 -7.121,25.446 -7.121,25.446 0,0 3.683,9.691 2.457,18.414 -1.231,8.722 -11.461,18.39 -9.368,22.226 2.098,3.836 7.129,39.391 -22.085,38.266 -29.219,-1.121 -33.254,-3.547 -33.254,-3.547 0,0 -3.606,-1.941 -5.067,0.969 -1.461,2.91 -0.383,15.082 -2.148,25.109 -1.77,10.027 -13.848,18.227 -13.848,18.227 0,0 -8.137,3.2 1.973,5.98 10.105,2.78 35.652,9.81 40.808,31.38 5.161,21.57 -14.246,47.01 -32.91,48.46 -18.668,1.45 -24.062,-4.4 -28.808,0 -4.75,4.4 7.683,36.11 -15.899,53.07 -23.578,16.96 -52.808,13.81 -52.808,13.81 0,0 -15.157,-1.52 -28.774,-8.48 -13.613,-6.96 -22.465,-5.15 -22.465,-5.15 0,0 -37.023,9.95 -56.632,-2.02 -19.606,-11.97 -18.625,-28.21 -16.168,-39.84 2.457,-11.63 5.015,-13.33 -1.297,-11.15 -6.317,2.19 -40.289,12.58 -63.094,-8.61 -22.805,-21.19 -17.402,-43 -9.297,-51.48 8.106,-8.48 14.953,-18.5 9.617,-18.9 -5.336,-0.4 -36.34,3.86 -44.594,-20.121 -8.253,-23.984 4.2,-39.434 4.2,-39.434 0,0 5.672,-6.632 -1.106,-11.015 -6.777,-4.383 -32.472,-9.157 -34.926,-23.696 -2.457,-14.539 8.84,-36.105 4.418,-39.98 -4.418,-3.879 -42.98,-8.899 -45.191,-32.316 -2.211,-23.418 9.598,-54.485 49.012,-59.426 39.41,-4.946 56.851,18.418 56.851,18.418 0,0 8.84,-12.215 21.367,-16.094 12.528,-3.875 20.586,-0.703 22.454,-3.227 1.863,-2.523 1.773,-14.347 6.242,-23.371 4.465,-9.023 10.371,-9.402 10.371,-9.402 0,0 3.906,1.277 3.906,-2.535 0,-3.813 -9.793,-14.371 -5.105,-28.238 4.687,-13.868 13.402,-20.649 22.937,-22.379 9.535,-1.731 20.012,0.336 22.66,-0.813 2.649,-1.144 4.164,-0.144 5.418,-5.91 1.25,-5.766 0.817,-17.766 23.571,-31.117 0,0 10.078,-3.715 18.004,-3.614 7.925,0.102 10.871,3.731 11.429,-3.078 0.559,-6.808 4.754,-35.976 32.016,-35.714 27.265,0.261 44.379,14.843 47.246,22.453 2.863,7.613 7.824,-0.575 17.379,0.367 9.555,0.941 34.609,-1.27 48.855,19.586 14.246,20.855 9.242,32.82 12.848,41.742 3.609,8.922 18.594,13.488 24.242,28.531 5.649,15.039 4.664,27.399 -1.476,38.063 -6.137,10.66 0.589,8.48 5.207,8.48 4.621,0 41.218,0.445 50.304,26.27 9.09,25.828 -7.367,50.058 -22.351,55.39 z m -61.715,85.481 c 1.113,1.695 7.391,8.215 20.16,9.547 4.59,0.476 12.027,-5.164 14.285,-9.035 1.754,-3.008 2.531,-5.852 2.547,-9.208 0.004,-1.46 -0.348,-2.757 -0.851,-3.941 -2.485,-5.859 -4.969,-11.801 -11.348,-14.723 -2.281,-1.046 -4.758,-1.132 -7.274,-1.168 -4.015,-0.054 -7.761,1.309 -11.429,2.411 -4.938,1.484 -8.84,4.312 -10.574,9.972 -2.047,6.66 1.289,11.285 4.484,16.145 z m 39.066,-62.293 c -0.633,-2.403 -2.136,-4.344 -3.711,-6.278 -2.511,-3.093 -5.957,-5.082 -9.152,-7.171 -4.301,-2.817 -8.996,-3.989 -14.527,-1.715 -6.512,2.679 -8.008,8.16 -9.778,13.679 -0.617,1.926 -1.726,10.856 5.348,21.422 2.547,3.801 11.687,5.875 16.152,5.133 3.465,-0.574 6.188,-1.793 8.821,-3.914 1.148,-0.922 1.937,-2.016 2.547,-3.152 3.003,-5.617 6.07,-11.289 4.3,-18.004 z m -57.566,43.355 c 6.613,-7.101 13.348,-14.261 13.387,-24.8 0.015,-3.77 -1.434,-7.196 -2.985,-10.641 -2.476,-5.504 -6.758,-9.738 -10.625,-14.031 -5.215,-5.782 -11.648,-9.297 -20.664,-8.071 -10.617,1.45 -14.969,8.926 -19.738,16.36 -1.664,2.59 -6.797,15.277 -0.555,33.508 2.246,6.55 14.86,13.093 21.707,13.71 5.317,0.481 9.789,-0.265 14.496,-2.378 2.043,-0.918 3.633,-2.219 4.977,-3.657 z m -230.438,18.891 c -3.41,3.777 -5.375,7.613 -6.406,12.406 -0.449,2.082 -0.336,4.039 0.027,5.883 1.786,9.094 3.555,18.312 11.79,24.355 2.945,2.157 6.457,3.008 10.039,3.793 5.722,1.25 11.484,0.403 17.054,-0.101 7.504,-0.676 13.93,-3.578 18.11,-11.149 4.922,-8.925 1.547,-16.507 -1.555,-24.382 -1.082,-2.746 -8.094,-13.899 -25.938,-19.536 -6.414,-2.027 -18.734,3.86 -23.121,8.731 z m 1.172,-35.438 c -3.539,-6.023 -9.242,-6.777 -15.019,-7.793 -2.016,-0.351 -11.133,-0.277 -20.836,8.016 -3.488,2.984 -4.387,12.195 -3.059,16.465 1.028,3.316 2.602,5.82 5.078,8.121 1.078,1.004 2.278,1.633 3.5,2.082 6.035,2.207 12.133,4.473 18.653,1.867 2.332,-0.929 4.09,-2.652 5.828,-4.441 2.785,-2.863 4.332,-6.492 6.019,-9.887 2.274,-4.574 2.84,-9.316 -0.164,-14.43 z m 43.379,131.024 c 1.117,1.69 7.395,8.21 20.164,9.54 4.59,0.48 12.028,-5.17 14.281,-9.03 1.754,-3.01 2.536,-5.85 2.547,-9.21 0.008,-1.46 -0.343,-2.76 -0.847,-3.94 -2.485,-5.86 -4.973,-11.8 -11.352,-14.72 -2.277,-1.05 -4.758,-1.14 -7.269,-1.17 -4.02,-0.06 -7.766,1.31 -11.43,2.41 -4.941,1.48 -8.844,4.31 -10.578,9.97 -2.043,6.66 1.293,11.29 4.484,16.15 z M 491.969,917.652 c 2.039,3.106 13.547,15.055 36.949,17.496 8.41,0.875 22.035,-9.468 26.176,-16.558 3.211,-5.512 4.636,-10.723 4.664,-16.871 0.012,-2.676 -0.633,-5.055 -1.555,-7.227 -4.551,-10.734 -9.113,-21.625 -20.801,-26.98 -4.179,-1.914 -8.718,-2.078 -13.324,-2.141 -7.363,-0.098 -14.23,2.399 -20.945,4.418 -9.055,2.723 -16.207,7.906 -19.387,18.274 -3.746,12.21 2.367,20.687 8.223,29.589 z m 62.961,-55.121 c 0.582,0.332 1.125,0.731 1.683,1.106 7.672,5.277 20.817,4.183 30.492,-2.555 7.618,-5.305 15.633,-10.34 18.403,-19.914 1.781,-6.16 3.433,-13.664 0.359,-18.52 -3.054,-4.828 -4.262,-11.972 -12,-14.05 -6.484,-1.743 -12.332,-2.532 -18.601,0.011 -2.625,1.071 -5.496,2.161 -8.266,2.176 -10.066,0.059 -13.172,8.004 -16.977,14.633 -3.351,5.836 -4.914,12.391 -5.418,19.32 -0.621,8.59 3.348,13.86 10.325,17.793 z m 48.308,14.047 c -6.433,-1.914 -14.375,-0.203 -20.504,3.824 -6.945,4.559 -12.281,10.391 -13.207,19.383 -0.422,4.098 0.891,7.547 2.801,10.375 4.535,6.715 9.36,13.188 16.211,18.18 4.719,3.437 9.125,6.867 14.543,9.465 19.164,9.195 37.078,-8.125 36.668,-24.852 0.484,-5.73 -3.613,-9.508 -6.055,-14.015 -6.597,-12.192 -17.98,-18.657 -30.457,-22.36 z m 16.325,-5.965 c 1.113,1.696 7.39,8.215 20.16,9.547 4.59,0.481 12.023,-5.164 14.285,-9.035 1.75,-3.004 2.527,-5.848 2.543,-9.203 0.008,-1.461 -0.344,-2.758 -0.848,-3.945 -2.484,-5.856 -4.973,-11.797 -11.351,-14.723 -2.282,-1.043 -4.758,-1.133 -7.27,-1.164 -4.019,-0.055 -7.766,1.305 -11.43,2.406 -4.941,1.488 -8.843,4.317 -10.578,9.973 -2.043,6.664 1.293,11.289 4.489,16.144 z m -3.09,-59.07 c 0.254,0.613 0.433,1.262 0.64,1.895 2.754,8.816 13.801,15.929 25.633,16.488 9.313,0.437 18.77,1.336 26.926,-4.535 5.246,-3.778 11.226,-8.692 11.832,-14.387 0.598,-5.656 4.101,-12.024 -0.707,-18.359 -4.024,-5.309 -8.145,-9.477 -14.672,-11.278 -2.738,-0.75 -5.684,-1.633 -7.875,-3.301 -7.973,-6.062 -15.375,-1.679 -22.508,1.239 -6.281,2.566 -11.601,6.789 -16.316,11.949 -5.848,6.394 -6.004,12.957 -2.953,20.289 z m 60.007,33.129 c -1.781,1.523 -2.238,6.226 -1.562,8.406 0.523,1.692 1.328,2.969 2.594,4.145 0.551,0.511 1.164,0.836 1.785,1.062 3.082,1.129 6.195,2.281 9.523,0.953 1.192,-0.472 2.086,-1.355 2.977,-2.269 1.422,-1.457 2.211,-3.313 3.07,-5.043 1.16,-2.336 1.453,-4.758 -0.082,-7.371 -1.808,-3.075 -4.719,-3.457 -7.668,-3.977 -1.027,-0.18 -5.683,-0.14 -10.637,4.094 z m -5.007,230.508 c 3.824,3.99 15.125,4.57 20.273,2.77 3.996,-1.39 6.969,-3.4 9.652,-6.46 1.168,-1.33 1.875,-2.79 2.36,-4.27 2.383,-7.29 4.828,-14.65 1.308,-22.27 -1.257,-2.72 -3.457,-4.72 -5.734,-6.7 -3.637,-3.16 -8.152,-4.81 -12.387,-6.64 -5.707,-2.46 -11.531,-2.88 -17.617,0.95 -7.172,4.53 -7.797,11.35 -8.73,18.27 -0.328,2.41 0.238,13.24 10.875,24.35 z m -4.75,-61.4 c 3.312,-1.74 16.375,-12.01 20.871,-34.796 1.613,-8.191 -7.649,-22.48 -14.453,-27.164 -5.282,-3.636 -10.422,-5.488 -16.633,-6.047 -2.699,-0.246 -5.156,0.184 -7.43,0.903 -11.234,3.543 -22.629,7.078 -29.051,18.105 -2.297,3.938 -2.851,8.387 -3.312,12.91 -0.738,7.227 1.183,14.192 2.64,20.969 1.965,9.13 6.583,16.61 16.774,20.63 12.008,4.75 21.098,-0.53 30.594,-5.51 z m -48.696,102.49 c 0.528,1.69 1.332,2.97 2.594,4.14 0.551,0.52 1.164,0.84 1.789,1.07 3.078,1.13 6.192,2.28 9.524,0.95 1.187,-0.47 2.086,-1.36 2.972,-2.27 1.422,-1.46 2.211,-3.31 3.074,-5.04 1.161,-2.34 1.45,-4.76 -0.085,-7.37 -1.805,-3.08 -4.719,-3.46 -7.668,-3.98 -1.028,-0.18 -5.68,-0.14 -10.637,4.09 -1.781,1.53 -2.238,6.23 -1.563,8.41 z m -42.144,23.46 c 1.027,4.45 8.847,9.56 13.289,10.42 3.449,0.66 6.43,0.47 9.652,-0.61 1.403,-0.46 2.531,-1.21 3.508,-2.06 4.816,-4.22 9.707,-8.46 10.449,-15.36 0.266,-2.47 -0.453,-4.81 -1.234,-7.17 -1.25,-3.77 -3.766,-6.82 -6.012,-9.89 -3.019,-4.13 -6.996,-6.85 -12.984,-6.64 -7.051,0.24 -10.406,4.85 -14.035,9.41 -1.262,1.58 -5.485,9.56 -2.633,21.9 z m -13.09,-63.59 c 1.086,2.46 2.645,4.38 4.379,6 8.551,8.01 17.176,16.16 30.062,16.41 4.606,0.09 8.829,-1.56 13.067,-3.34 6.777,-2.84 12.043,-7.85 17.363,-12.37 7.172,-6.09 11.598,-13.68 10.27,-24.43 -1.563,-12.67 -10.621,-18 -19.614,-23.81 -3.136,-2.03 -18.55,-8.39 -40.965,-1.32 -8.054,2.54 -16.296,17.43 -17.183,25.57 -0.692,6.32 0.133,11.65 2.621,17.29 z m 4.855,-55.27 c 11.586,-4.05 23.34,-8.1 29.672,-19.8 2.262,-4.172 2.696,-8.824 3.028,-13.55 0.531,-7.555 -1.703,-14.75 -3.442,-21.766 -2.347,-9.453 -7.402,-17.098 -18.156,-20.965 -12.668,-4.555 -21.965,1.231 -31.695,6.723 -3.395,1.918 -16.668,13.039 -20.602,36.926 -1.414,8.585 8.707,23.182 15.949,27.842 5.625,3.62 11.043,5.38 17.532,5.77 2.82,0.17 5.367,-0.36 7.714,-1.18 z m -76.558,106.01 c 3.07,7.78 18.644,14.98 26.93,15.35 6.433,0.28 11.785,-0.86 17.335,-3.66 2.415,-1.22 4.258,-2.87 5.793,-4.68 7.575,-8.92 15.29,-17.91 14.747,-30.62 -0.196,-4.54 -2.133,-8.59 -4.192,-12.66 -3.293,-6.5 -8.691,-11.37 -13.594,-16.33 -6.605,-6.68 -14.558,-10.57 -25.355,-8.6 -12.715,2.32 -17.539,11.57 -22.871,20.79 -1.86,3.21 -7.336,18.78 1.207,40.41 z m -65.231,-52.59 c 4.575,4.5 9.325,7.21 15.356,8.82 2.621,0.71 5.121,0.71 7.496,0.39 11.715,-1.57 23.582,-3.11 31.867,-12.89 2.961,-3.5 4.293,-7.79 5.547,-12.18 2.004,-7.01 1.328,-14.22 1.086,-21.15 -0.328,-9.36 -3.57,-17.53 -12.922,-23.25 -11.019,-6.74 -20.918,-3.1 -31.172,0.19 -3.578,1.15 -18.285,9.05 -26.738,30.78 -3.035,7.8 3.59,23.5 9.48,29.29 z M 378.68,983.492 c 0.261,9.449 3.242,13.141 12.312,16.778 8.637,3.46 17.266,5.91 26.488,2.67 10.262,-3.612 20.293,-9.827 19.153,-28.112 -1.106,-5.633 -6.887,-13.367 -16.512,-17.57 -12.266,-5.356 -24.617,-4.063 -35.297,3.82 -4.094,3.024 -5.457,9.012 -6.113,14.356 -0.324,2.648 -0.109,5.371 -0.031,8.058 z m 5.508,-151.89 c -0.391,-6.344 -2.114,-11.469 -5.524,-16.618 -1.484,-2.238 -3.348,-3.871 -5.332,-5.183 -9.793,-6.488 -19.68,-13.098 -32.426,-11.219 -4.554,0.672 -8.437,3.004 -12.316,5.457 -6.199,3.918 -10.535,9.731 -15.016,15.066 -6.035,7.192 -9.109,15.407 -5.976,25.786 3.691,12.226 13.523,15.98 23.379,20.23 3.441,1.481 19.714,5.203 40.609,-5.476 7.508,-3.836 13.109,-19.875 12.602,-28.043 z m -5.731,48.769 c -6.414,-2.023 -18.734,3.863 -23.121,8.731 -3.41,3.781 -5.375,7.617 -6.406,12.41 -0.45,2.082 -0.336,4.039 0.027,5.879 1.789,9.097 3.559,18.312 11.793,24.355 2.941,2.16 6.453,3.012 10.035,3.797 5.727,1.25 11.485,0.402 17.055,-0.102 7.504,-0.675 13.93,-3.578 18.109,-11.152 4.922,-8.922 1.547,-16.504 -1.554,-24.379 -1.082,-2.746 -8.094,-13.898 -25.938,-19.539 z m 75.27,-61.269 c -8.149,-7.145 -17.61,-10.965 -29.844,-7.829 -14.418,3.7 -19.195,14.715 -24.551,25.739 -1.867,3.843 -6.867,22.176 4.75,46.336 4.176,8.683 22.664,15.691 32.215,15.445 7.418,-0.191 13.469,-1.938 19.613,-5.605 2.672,-1.594 4.653,-3.645 6.266,-5.844 7.965,-10.86 16.078,-21.821 14.394,-36.375 -0.597,-5.199 -3.164,-9.699 -5.867,-14.203 -4.324,-7.203 -10.93,-12.36 -16.976,-17.664 z m 58.789,-86.368 c -2.485,-5.855 -4.973,-11.8 -11.352,-14.722 -2.281,-1.043 -4.758,-1.133 -7.269,-1.168 -4.02,-0.051 -7.766,1.308 -11.43,2.41 -4.942,1.484 -8.844,4.316 -10.578,9.973 -2.043,6.664 1.293,11.289 4.484,16.144 1.113,1.695 7.395,8.215 20.16,9.547 4.59,0.48 12.028,-5.164 14.285,-9.035 1.754,-3.004 2.532,-5.852 2.547,-9.207 0.008,-1.457 -0.343,-2.754 -0.847,-3.942 z m 0.285,34.192 c -7.094,-1.949 -14.375,-1.27 -21.395,-1.016 -9.457,0.352 -17.715,3.559 -23.476,12.778 -6.785,10.863 -3.075,20.597 0.277,30.679 1.168,3.52 9.195,17.973 31.184,26.235 7.906,2.972 23.761,-3.59 29.597,-9.403 4.535,-4.515 7.266,-9.195 8.887,-15.133 0.703,-2.582 0.695,-5.043 0.367,-7.378 -1.617,-11.528 -3.203,-23.204 -13.113,-31.333 -3.543,-2.906 -7.891,-4.207 -12.328,-5.429 z m 46.078,-74.047 c -1.07,-2.246 -2.91,-3.883 -4.813,-5.5 -3.046,-2.59 -6.8,-3.922 -10.328,-5.399 -4.754,-1.996 -9.586,-2.3 -14.601,0.938 -5.907,3.809 -6.36,9.469 -7.074,15.215 -0.25,2.004 0.312,10.98 9.23,20.094 3.207,3.277 12.578,3.664 16.832,2.128 3.301,-1.191 5.746,-2.878 7.945,-5.441 0.953,-1.113 1.532,-2.328 1.918,-3.559 1.91,-6.062 3.871,-12.191 0.891,-18.476 z m -0.414,34.785 c -8.059,2.543 -16.301,17.43 -17.192,25.566 -0.687,6.321 0.137,11.657 2.625,17.293 1.082,2.454 2.645,4.372 4.379,5.997 8.551,8.011 17.176,16.164 30.063,16.414 4.605,0.093 8.828,-1.567 13.066,-3.34 6.782,-2.84 12.043,-7.856 17.364,-12.375 7.171,-6.09 11.597,-13.684 10.273,-24.434 -1.566,-12.664 -10.625,-17.988 -19.617,-23.808 -3.137,-2.028 -18.551,-8.387 -40.961,-1.313 z m 61.789,-75.863 c -2.031,-6.422 -12.758,-12.16 -18.512,-12.332 -4.465,-0.137 -8.199,0.902 -12.09,3.324 -1.695,1.055 -3,2.465 -4.089,3.992 -5.379,7.551 -10.856,15.164 -10.645,25.738 0.074,3.778 1.371,7.118 2.75,10.469 2.199,5.36 5.887,9.328 9.23,13.375 4.504,5.461 9.981,8.567 17.504,6.75 8.868,-2.144 12.34,-9.922 16.164,-17.683 1.332,-2.707 5.344,-15.762 -0.312,-33.633 z m 64.68,14.769 c -5.286,-3.636 -10.426,-5.492 -16.633,-6.05 -2.703,-0.243 -5.156,0.183 -7.434,0.902 -11.234,3.543 -22.625,7.082 -29.051,18.105 -2.293,3.942 -2.851,8.387 -3.312,12.911 -0.738,7.23 1.187,14.191 2.644,20.968 1.961,9.133 6.579,16.614 16.77,20.637 12.008,4.738 21.098,-0.535 30.594,-5.516 3.312,-1.734 16.379,-12.007 20.871,-34.797 1.613,-8.191 -7.649,-22.48 -14.449,-27.16 z m 45.031,89.18 c -3.207,-7.57 -6.422,-15.246 -14.664,-19.023 -2.946,-1.348 -6.149,-1.465 -9.395,-1.508 -5.191,-0.067 -10.031,1.691 -14.765,3.117 -6.383,1.918 -11.426,5.574 -13.668,12.883 -2.641,8.605 1.672,14.582 5.797,20.859 1.437,2.188 9.55,10.613 26.046,12.332 5.934,0.617 15.539,-6.672 18.457,-11.672 2.262,-3.883 3.27,-7.558 3.29,-11.894 0.007,-1.887 -0.45,-3.563 -1.098,-5.094 z m 59.273,65.566 c -1.562,-12.664 -10.621,-17.988 -19.613,-23.808 -3.137,-2.028 -18.551,-8.387 -40.965,-1.313 -8.055,2.543 -16.297,17.43 -17.183,25.567 -0.692,6.316 0.132,11.656 2.621,17.293 1.082,2.453 2.644,4.371 4.379,5.996 8.55,8.012 17.175,16.164 30.062,16.414 4.606,0.09 8.824,-1.567 13.066,-3.344 6.782,-2.84 12.043,-7.851 17.364,-12.371 7.172,-6.094 11.597,-13.684 10.269,-24.434"
         style="fill:#ffffff;fill-opacity:1;fill-rule:nonzero;stroke:none"
         id="path16" /><path
         d="m 255.066,307.711 c 36.872,1.457 62.164,12.129 94.5,18.551 14.352,2.847 29.602,3.508 44.559,0.593 15.051,-2.929 27.793,-8.269 40.578,-12.812 13.531,-4.805 28.238,-9.398 44.988,-11.395 21.868,-2.605 43.133,-0.668 63.383,2.942 19.024,3.39 36.559,8.301 56.84,10.219 8.578,0.812 17.711,1.132 26.359,-0.008 10.567,-1.391 17.387,-5.043 24.227,-8.746 15.152,-8.211 32.531,-15.043 56.801,-16.239 23.019,-1.128 46.617,4.375 53.195,14.625 5.617,8.743 -24.699,13.036 -30.305,4.305 -5.086,-7.918 -30.269,-4.555 -40.796,-0.949 -15.094,5.172 -23.239,13.348 -40.114,17.738 -38.562,10.031 -78.687,0.031 -113.812,-6.871 -16.516,-3.246 -34.5,-5.551 -52.481,-2.691 -14.984,2.382 -27.75,7.492 -40.047,11.922 -26.957,9.714 -56.785,17.132 -91.488,12.855 -17.32,-2.133 -32.605,-6.367 -47.765,-10.492 -14.708,-4.004 -30.637,-8.613 -48.372,-9.313 -8.445,-0.336 -15.8,-2.656 -15.875,-6.847 -0.062,-3.473 7.118,-7.727 15.625,-7.387 v 0"
         style="fill:#ffffff;fill-opacity:1;fill-rule:nonzero;stroke:none"
         id="path18" /><path
         d="m 88.2227,208.48 c -0.3047,-1.82 -0.6094,-6.75 -0.9102,-14.781 -0.1523,-2.719 -0.418,-8.179 -0.7969,-16.367 -0.3789,-8.184 -0.6445,-13.941 -0.7929,-17.273 -0.4571,-6.981 -0.6836,-14.329 -0.6836,-22.047 0,-23.801 1.2851,-38.6526 3.8632,-44.5628 C 90.7227,89.5 94.207,87 99.3633,85.9414 c 2.7267,-0.4531 4.9997,-0.6797 6.8207,-0.6797 2.421,0 4.546,0.2969 6.363,0.9102 6.215,1.8164 10.379,3.4062 12.504,4.7773 2.121,1.3594 3.183,3.1797 3.183,5.4492 0,1.9727 -0.226,3.1797 -0.683,3.6406 -0.453,0.449 -1.817,0.762 -4.09,0.91 -2.731,0.301 -5.004,-0.078 -6.82,-1.1404 -1.973,-0.9102 -4.246,-1.5898 -6.821,-2.0391 -0.609,-0.1601 -1.441,-0.2304 -2.5,-0.2304 -3.336,0 -5.308,2.6519 -5.914,7.9609 -0.453,4.09 -0.679,15.91 -0.679,35.461 0,26.519 0.3,43.949 0.91,52.289 0.453,6.059 0.679,10.23 0.679,12.5 0,2.578 -0.531,4.469 -1.589,5.691 -1.3637,1.809 -3.2622,2.719 -5.684,2.719 -1.9727,0 -3.5625,-0.531 -4.7735,-1.59 -1.0625,-0.91 -1.7461,-2.269 -2.0468,-4.09 z m 92.0703,-50.242 c 1.82,-3.937 2.957,-7.429 3.41,-10.457 0.453,-3.031 0.684,-8.031 0.684,-15 0,-8.64 -0.684,-14.633 -2.047,-17.961 -1.363,-3.039 -2.5,-4.699 -3.41,-5 l -0.453,-0.23 h -0.231 c -1.816,0 -3.863,1.969 -6.137,5.91 -2.273,3.941 -3.863,8.41 -4.773,13.41 -1.215,5.61 -1.82,11.75 -1.82,18.422 0,11.059 1.437,16.59 4.32,16.59 0.453,0 0.758,-0.082 0.91,-0.231 0.91,-0.453 2.422,-0.832 4.547,-1.132 v 0 c 2.273,-0.457 3.937,-1.899 5,-4.321 z m -10.91,15.684 c -0.153,0 -0.383,0.039 -0.684,0.117 -0.304,0.07 -0.531,0.109 -0.683,0.109 -1.969,0 -4.09,-0.718 -6.364,-2.16 -2.273,-1.437 -4.019,-3.218 -5.23,-5.34 -2.121,-3.789 -3.184,-10.226 -3.184,-19.316 0,-3.953 0.078,-6.98 0.231,-9.102 0.754,-10.91 3.41,-20.691 7.957,-29.32 2.273,-4.25 5,-7.199 8.183,-8.871 4.243,-2.1171 7.422,-3.1796 9.547,-3.1796 1.821,0 3.711,0.5312 5.684,1.5898 2.726,1.3594 5.004,3.9418 6.82,7.7308 3.637,7.269 5.457,16.898 5.457,28.871 0,9.551 -1.441,18.34 -4.32,26.371 -2.274,6.668 -5.231,11.219 -8.867,13.637 -2.121,1.371 -4.09,2.05 -5.91,2.05 -1.668,0 -3.11,-0.609 -4.321,-1.82 -1.215,-1.219 -2.652,-1.668 -4.316,-1.367 z m 74.109,16.367 -0.453,-17.051 c -0.305,-11.519 -0.762,-17.578 -1.363,-18.179 -1.973,-1.981 -5.988,-2.957 -12.051,-2.957 -2.578,0 -4.699,-0.911 -6.363,-2.731 -1.367,-1.359 -2.086,-2.269 -2.16,-2.73 -0.079,-0.45 0.187,-1.36 0.793,-2.719 0.605,-1.07 1.289,-1.711 2.046,-1.942 0.758,-0.218 2.5,-0.339 5.231,-0.339 3.785,0 7.195,0.148 10.23,0.461 l 4.09,0.218 0.684,-12.5 c 0.601,-11.82 1.551,-20.691 2.84,-26.601 1.289,-5.9104 3.297,-10.3792 6.023,-13.4104 0.91,-1.0586 2.652,-1.5898 5.231,-1.5898 2.121,0 4.32,0.3007 6.593,0.9101 2.422,0.6016 4.508,1.9297 6.25,3.9805 1.742,2.039 2.617,4.0508 2.617,6.0195 0,2.4221 -1.445,3.6411 -4.32,3.6411 -1.363,0 -2.957,-0.309 -4.773,-0.911 -0.91,-0.461 -1.746,-0.679 -2.5,-0.679 -1.52,0 -2.274,2.269 -2.274,6.82 0,2.719 -0.308,4.691 -0.91,5.91 -0.305,0.75 -0.762,6.141 -1.363,16.141 l -0.684,14.551 2.274,1.589 c 1.211,0.758 2.422,1.141 3.636,1.141 1.059,0 3.032,-0.23 5.911,-0.691 2.421,-0.45 4.242,-0.68 5.457,-0.68 1.058,0 1.894,0.301 2.5,0.91 0.457,0.609 0.683,1.508 0.683,2.731 0,1.968 -0.836,3.789 -2.5,5.457 -1.215,1.211 -2.312,1.961 -3.297,2.273 -0.988,0.297 -3.222,0.449 -6.707,0.449 -5.152,0 -8.035,0.379 -8.64,1.141 -0.606,0.91 -0.907,2.578 -0.907,5 0,3.027 0.454,10.148 1.364,21.367 0.148,1.512 0.226,3.18 0.226,5 0,1.371 -0.152,2.242 -0.457,2.621 -0.304,0.371 -0.906,0.719 -1.816,1.02 -1.82,0.601 -3.035,0.91 -3.637,0.91 -1.516,0 -3.109,-0.762 -4.773,-2.27 z m 80.703,0 -0.453,-17.051 c -0.304,-11.519 -0.758,-17.578 -1.363,-18.179 -1.973,-1.981 -5.988,-2.957 -12.051,-2.957 -2.578,0 -4.699,-0.911 -6.363,-2.731 -1.363,-1.359 -2.086,-2.269 -2.16,-2.73 -0.078,-0.45 0.187,-1.36 0.797,-2.719 0.601,-1.07 1.285,-1.711 2.043,-1.942 0.757,-0.218 2.503,-0.339 5.23,-0.339 3.785,0 7.195,0.148 10.23,0.461 l 4.09,0.218 0.684,-12.5 c 0.605,-11.82 1.555,-20.691 2.844,-26.601 1.285,-5.9104 3.297,-10.3792 6.023,-13.4104 0.91,-1.0586 2.649,-1.5898 5.227,-1.5898 2.121,0 4.32,0.3007 6.593,0.9101 2.422,0.6016 4.508,1.9297 6.254,3.9805 1.739,2.039 2.614,4.0508 2.614,6.0195 0,2.4221 -1.442,3.6411 -4.321,3.6411 -1.363,0 -2.953,-0.309 -4.773,-0.911 -0.91,-0.461 -1.742,-0.679 -2.5,-0.679 -1.52,0 -2.274,2.269 -2.274,6.82 0,2.719 -0.304,4.691 -0.91,5.91 -0.304,0.75 -0.761,6.141 -1.363,16.141 l -0.684,14.551 2.274,1.589 c 1.211,0.758 2.422,1.141 3.637,1.141 1.058,0 3.031,-0.23 5.914,-0.691 2.421,-0.45 4.238,-0.68 5.453,-0.68 1.058,0 1.894,0.301 2.504,0.91 0.453,0.609 0.679,1.508 0.679,2.731 0,1.968 -0.836,3.789 -2.5,5.457 -1.215,1.211 -2.312,1.961 -3.297,2.273 -0.988,0.297 -3.222,0.449 -6.707,0.449 -5.152,0 -8.035,0.379 -8.636,1.141 -0.61,0.91 -0.91,2.578 -0.91,5 0,3.027 0.453,10.148 1.363,21.367 0.148,1.512 0.226,3.18 0.226,5 0,1.371 -0.152,2.242 -0.453,2.621 -0.304,0.371 -0.91,0.719 -1.82,1.02 -1.816,0.601 -3.031,0.91 -3.637,0.91 -1.515,0 -3.109,-0.762 -4.773,-2.27 z m 64.793,-20.23 c -2.273,-3.489 -3.41,-6.137 -3.41,-7.957 0,-0.762 -0.683,-2.352 -2.047,-4.77 -0.91,-1.523 -1.363,-3.113 -1.363,-4.781 0,-1.973 0.148,-3.711 0.453,-5.219 0.152,-1.223 0.457,-3.492 0.91,-6.82 0.457,-3.34 0.758,-5.774 0.91,-7.282 2.727,-19.55 8.184,-29.332 16.368,-29.332 3.636,0 7.765,2.622 12.39,7.852 4.621,5.23 8.828,12.078 12.617,20.57 2.122,4.852 3.637,7.731 4.547,8.641 0.758,0.91 1.668,2.801 2.731,5.68 1.054,2.879 1.59,4.929 1.59,6.14 0,2.731 -1.746,4.09 -5.231,4.09 -1.816,0 -3.219,-0.531 -4.203,-1.59 -0.988,-1.062 -2.012,-3.109 -3.07,-6.14 -2.879,-8.332 -7.274,-16.821 -13.188,-25.461 -3.336,-5.149 -5.605,-7.731 -6.816,-7.731 -1.215,0 -2.199,1.59 -2.957,4.781 -0.762,3.18 -1.668,9.008 -2.731,17.5 -0.304,3.032 -0.453,4.848 -0.453,5.461 0,1.969 0.453,3.411 1.363,4.321 0.911,0.91 2.879,1.968 5.911,3.179 5.004,2.118 7.879,3.52 8.64,4.207 0.758,0.684 1.137,2.161 1.137,4.434 0,4.699 -1.742,9.09 -5.231,13.188 -0.757,0.75 -2.308,1.812 -4.66,3.179 -2.351,1.36 -3.828,2.039 -4.429,2.039 -0.157,0 -1.446,-0.597 -3.868,-1.808 -1.668,-0.758 -3.636,-2.891 -5.91,-6.371 z m 179.598,26.832 c 0,-3.34 -0.305,-6.981 -0.91,-10.922 -0.91,-6.059 -2.274,-15.27 -4.09,-27.617 -1.82,-12.352 -3.035,-20.422 -3.641,-24.211 -0.304,-1.672 -0.679,-4.063 -1.136,-7.161 -0.454,-3.109 -0.758,-4.968 -0.911,-5.57 -0.304,-2.269 -0.906,-3.41 -1.816,-3.41 -0.762,0 -1.363,0.828 -1.82,2.5 -0.153,0.301 -1.024,2.578 -2.614,6.82 -1.589,4.239 -2.386,6.821 -2.386,7.731 0,0.758 -0.453,2.199 -1.364,4.32 -2.882,6.82 -7.882,21.969 -15.003,45.469 -1.52,5 -2.957,8.64 -4.321,10.91 -1.215,1.82 -3.035,2.73 -5.457,2.73 -1.972,0 -3.637,-0.421 -5,-1.25 -1.363,-0.839 -2.047,-1.859 -2.047,-3.07 v -0.461 l 0.227,-0.449 c 1.211,-3.18 5.984,-18.871 14.324,-47.059 0.301,-1.222 2.348,-7.132 6.137,-17.73 3.789,-10.609 5.91,-16.52 6.367,-17.742 0.906,-2.571 2.801,-6.778 5.684,-12.6096 2.875,-5.8399 4.773,-9.211 5.679,-10.1211 0.91,-1.0586 2.278,-1.5899 4.094,-1.5899 1.969,0 3.981,0.5704 6.023,1.7032 2.047,1.1367 3.219,2.4687 3.528,3.9765 0.906,3.9414 1.738,10.6919 2.5,20.2419 0.601,7.27 1.137,11.891 1.59,13.86 0.91,3.191 2.195,11.832 3.867,25.922 0.453,3.789 1.055,7.199 1.816,10.23 0.91,3.488 2.121,14.469 3.637,32.957 0.453,3.191 0.684,5.383 0.684,6.602 0,1.359 -0.536,2.5 -1.594,3.41 -1.215,0.91 -2.426,1.359 -3.637,1.359 -1.668,0 -3.488,-0.762 -5.453,-2.269 -1.973,-1.672 -2.957,-4.172 -2.957,-7.5 z m 38.644,-52.059 c 0,-0.613 0.036,-1.672 0.114,-3.191 0.078,-1.512 0.117,-2.653 0.117,-3.411 0,-0.761 0.035,-2.011 0.113,-3.75 0.074,-1.742 0.114,-3.07 0.114,-3.98 0,-17.578 -0.684,-29.48 -2.047,-35.6914 -0.153,-0.4492 -0.227,-1.0586 -0.227,-1.8203 0,-3.1797 1.969,-5.6094 5.91,-7.2695 1.059,-0.4571 2.121,-0.6797 3.184,-0.6797 2.273,0 3.637,1.1328 4.09,3.4101 0,0.3008 0.074,0.75 0.226,1.3594 0.153,0.6016 0.266,1.2109 0.344,1.8203 0.074,0.6016 0.187,1.1328 0.34,1.5899 1.058,5.6015 1.594,19.2502 1.594,40.9222 0,1.211 -0.043,2.961 -0.118,5.23 -0.078,2.27 -0.113,3.859 -0.113,4.77 -0.305,9.699 -1.062,15.007 -2.273,15.918 -1.063,0.91 -2.653,1.363 -4.774,1.363 -1.363,0 -2.652,-0.301 -3.863,-0.91 -1.82,-1.364 -2.731,-6.59 -2.731,-15.68 z m 3.411,33.188 c 0,-1.071 0.945,-2.239 2.843,-3.532 1.895,-1.289 3.598,-1.929 5.114,-1.929 1.367,0 2.539,0.64 3.523,1.929 0.984,1.293 1.481,2.774 1.481,4.442 0,3.179 -1.672,4.769 -5.004,4.769 -1.817,0 -3.637,-0.679 -5.453,-2.051 -1.672,-1.058 -2.504,-2.269 -2.504,-3.628 z m 48.195,-15.688 v -6.594 c 0,-8.187 0.984,-17.886 2.957,-29.097 1.059,-5.911 1.59,-9.481 1.59,-10.692 0,-0.91 -0.379,-1.359 -1.137,-1.359 -0.91,0 -1.742,1.211 -2.5,3.64 -1.519,4.54 -3.41,6.821 -5.683,6.821 -0.153,0 -0.379,-0.039 -0.684,-0.121 -0.305,-0.071 -0.531,-0.11 -0.68,-0.11 -3.488,-0.761 -5.23,-2.582 -5.23,-5.461 0,-3.179 1.285,-6.55 3.867,-10.109 2.574,-3.57 5,-5.352 7.273,-5.352 1.211,0 2.422,-0.296 3.637,-0.898 0.606,-0.309 1.211,-0.461 1.82,-0.461 1.817,0 3.899,0.492 6.25,1.481 2.348,0.98 3.903,2.082 4.661,3.289 0.757,1.222 1.136,2.961 1.136,5.23 0,1.82 -0.078,3.41 -0.226,4.781 -0.305,4.852 -0.836,8.102 -1.59,9.77 -0.762,1.371 -1.293,8.941 -1.594,22.742 -0.152,3.777 -0.226,8.027 -0.226,12.727 0,5.601 0.453,9.089 1.363,10.461 0.91,1.511 1.742,2.269 2.5,2.269 0.758,0 1.894,-0.527 3.41,-1.59 2.426,-1.668 4.695,-2.5 6.82,-2.5 1.516,0 2.731,0.449 3.641,1.36 1.055,1.062 1.59,2.05 1.59,2.961 0,1.21 -0.91,2.57 -2.731,4.089 -5.304,4.539 -10.683,6.821 -16.14,6.821 -5,0 -8.864,-2.129 -11.594,-6.371 -1.516,-2.118 -2.352,-8.028 -2.5,-17.727 z m 68.883,0 v -6.594 c 0,-8.187 0.984,-17.886 2.953,-29.097 1.058,-5.911 1.594,-9.481 1.594,-10.692 0,-0.91 -0.379,-1.359 -1.137,-1.359 -0.91,0 -1.746,1.211 -2.5,3.64 -1.52,4.54 -3.41,6.821 -5.684,6.821 -0.152,0 -0.382,-0.039 -0.683,-0.121 -0.305,-0.071 -0.532,-0.11 -0.684,-0.11 -3.484,-0.761 -5.226,-2.582 -5.226,-5.461 0,-3.179 1.285,-6.55 3.863,-10.109 2.578,-3.57 5.004,-5.352 7.277,-5.352 1.211,0 2.422,-0.296 3.637,-0.898 0.601,-0.309 1.211,-0.461 1.816,-0.461 1.821,0 3.903,0.492 6.254,1.481 2.348,0.98 3.899,2.082 4.66,3.289 0.758,1.222 1.137,2.961 1.137,5.23 0,1.82 -0.078,3.41 -0.226,4.781 -0.305,4.852 -0.836,8.102 -1.594,9.77 -0.758,1.371 -1.289,8.941 -1.59,22.742 -0.152,3.777 -0.227,8.027 -0.227,12.727 0,5.601 0.454,9.089 1.364,10.461 0.91,1.511 1.742,2.269 2.5,2.269 0.757,0 1.894,-0.527 3.41,-1.59 2.422,-1.668 4.695,-2.5 6.82,-2.5 1.516,0 2.727,0.449 3.637,1.36 1.058,1.062 1.594,2.05 1.594,2.961 0,1.21 -0.911,2.57 -2.731,4.089 -5.305,4.539 -10.683,6.821 -16.14,6.821 -5,0 -8.868,-2.129 -11.594,-6.371 -1.516,-2.118 -2.352,-8.028 -2.5,-17.727 z m 64.105,7.727 c -2.269,-3.489 -3.406,-6.137 -3.406,-7.957 0,-0.762 -0.684,-2.352 -2.047,-4.77 -0.91,-1.523 -1.363,-3.113 -1.363,-4.781 0,-1.973 0.148,-3.711 0.453,-5.219 0.148,-1.223 0.453,-3.492 0.91,-6.82 0.453,-3.34 0.758,-5.774 0.906,-7.282 2.731,-19.55 8.188,-29.332 16.371,-29.332 3.637,0 7.766,2.622 12.391,7.852 4.621,5.23 8.824,12.078 12.617,20.57 2.121,4.852 3.637,7.731 4.547,8.641 0.754,0.91 1.664,2.801 2.727,5.68 1.058,2.879 1.59,4.929 1.59,6.14 0,2.731 -1.743,4.09 -5.227,4.09 -1.82,0 -3.223,-0.531 -4.207,-1.59 -0.988,-1.062 -2.012,-3.109 -3.066,-6.14 -2.883,-8.332 -7.278,-16.821 -13.188,-25.461 -3.336,-5.149 -5.609,-7.731 -6.82,-7.731 -1.215,0 -2.199,1.59 -2.957,4.781 -0.758,3.18 -1.668,9.008 -2.727,17.5 -0.305,3.032 -0.453,4.848 -0.453,5.461 0,1.969 0.453,3.411 1.363,4.321 0.91,0.91 2.875,1.968 5.91,3.179 5,2.118 7.879,3.52 8.637,4.207 0.758,0.684 1.141,2.161 1.141,4.434 0,4.699 -1.746,9.09 -5.231,13.188 -0.761,0.75 -2.312,1.812 -4.66,3.179 -2.351,1.36 -3.828,2.039 -4.433,2.039 -0.153,0 -1.442,-0.597 -3.864,-1.808 -1.672,-0.758 -3.636,-2.891 -5.914,-6.371 z m 71.614,-47.739 c 0,-9.699 0.339,-15.5 1.023,-17.39 0.684,-1.899 2.762,-3.071 6.25,-3.532 0.305,0 0.644,-0.039 1.023,-0.109 0.379,-0.078 0.645,-0.109 0.797,-0.109 1.821,0 3.032,1.05 3.637,3.179 0.605,2.121 1.059,7.2 1.363,15.231 0.457,10.461 1.285,18.34 2.5,23.64 1.215,5.309 3.41,10.231 6.594,14.782 1.668,2.578 5.004,5.148 10.004,7.726 4.547,2.121 7.426,3.793 8.641,5 1.21,1.211 1.816,2.801 1.816,4.782 0,1.05 -0.305,1.812 -0.91,2.269 h -0.68 c -1.973,0 -4.625,-0.23 -7.957,-0.68 -4.094,-0.609 -8.109,-1.75 -12.051,-3.41 -3.941,-1.668 -6.363,-3.34 -7.273,-5 -0.453,-1.07 -1.215,-1.597 -2.274,-1.597 -0.91,0 -1.363,2.128 -1.363,6.367 0,4.242 -0.683,6.82 -2.047,7.73 -1.215,0.91 -2.652,1.36 -4.32,1.36 -1.816,0 -3.488,-0.559 -5,-1.7 -1.52,-1.14 -2.273,-2.539 -2.273,-4.211 0,-0.148 0.035,-0.339 0.113,-0.566 0.074,-0.223 0.113,-0.41 0.113,-0.562 1.211,-4.399 1.969,-22.129 2.274,-53.2 v 0"
         style="fill:#ffffff;fill-opacity:1;fill-rule:nonzero;stroke:none"
         id="path20" /></g></g></svg>
