<?xml version="1.0" encoding="UTF-8"?>
<svg
   xmlns:dc="http://purl.org/dc/elements/1.1/"
   xmlns:cc="http://creativecommons.org/ns#"
   xmlns:rdf="http://www.w3.org/1999/02/22-rdf-syntax-ns#"
   xmlns:svg="http://www.w3.org/2000/svg"
   xmlns="http://www.w3.org/2000/svg"
   viewBox="0 0 377.94666 377.94666"
   height="377.94666"
   class="sphere-2"
   width="377.94666"
   xml:space="preserve"
   id="svg2"
   version="1.1"><metadata
     id="metadata8"><rdf:RDF><cc:Work
         rdf:about=""><dc:format>image/svg+xml</dc:format><dc:type
           rdf:resource="http://purl.org/dc/dcmitype/StillImage" /></cc:Work></rdf:RDF></metadata><defs
     id="defs6" /><g
     transform="matrix(1.3333333,0,0,-1.3333333,0,377.94667)"
     id="g10"><g
       transform="scale(0.1)"
       class="sphere-fill"
       id="g12"><path
         id="path14"
         style="fill-opacity:1;fill-rule:nonzero;stroke:none"
         d="m 2309.3,1988.33 c 181.17,-156.98 227.76,-642.09 158.93,-866.89 -53.46,-174.6 -135.29,-306.37 -263.85,-427.581 -55.93,-52.73 -118.32,-85.98 -181.8,-109.531 C 1709.15,468.031 1392.32,348.898 1053.64,485.93 932.613,534.891 841.336,625.719 750.914,719.922 606.359,870.512 525.895,1061.62 438.305,1240.34 c -118.035,240.87 -147.567,490.7 8.519,759.89 183.867,317.11 480.09,356.73 780.216,410.16 104.68,18.63 578.17,14.73 1082.26,-422.06" /></g></g></svg>