<?xml version="1.0" encoding="UTF-8"?>
<svg
  xmlns:svg="http://www.w3.org/2000/svg"
  xmlns="http://www.w3.org/2000/svg"
  xml:space="preserve"
  class="sphere"
  viewBox="0 0 377.94666 377.94666"
  ><defs
    id="defs6" /><g
    id="g10"
    transform="matrix(1.3333333,0,0,-1.3333333,0,377.94667)"><g
      id="g12"
      transform="scale(0.1)"><path class="sphere-fill"
        d="m 520.484,1234.99 c 38.219,-19.8 66.715,-102.53 64.141,-144.67 -2,-32.72 -10.758,-59.16 -28.113,-85.72 -7.551,-11.549 -17.043,-19.971 -27.137,-26.748 -49.836,-33.461 -100.141,-67.563 -165.02,-57.864 -23.187,3.473 -42.929,15.5 -62.671,28.153 -31.555,20.211 -53.625,50.199 -76.422,77.719 -30.719,37.1 -46.36,79.47 -30.414,133.01 18.789,63.08 68.832,82.43 118.988,104.36 17.492,7.65 100.312,26.85 206.648,-28.24"
        style="fill-opacity:1;fill-rule:nonzero;stroke:none"
        id="path14" /><path class="sphere-fill"
        d="m 1885.2,1509.97 c 2.47,-29.55 -18.4,-49.04 -30.82,-72.3 -33.57,-62.88 -91.51,-96.22 -155,-115.34 -32.74,-9.87 -73.14,-1.05 -104.35,19.72 -35.34,23.53 -62.49,53.61 -67.2,100 -2.14,21.14 4.54,38.92 14.26,53.53 23.07,34.63 47.62,68.02 82.49,93.77 24,17.74 46.44,35.42 74.01,48.82 97.53,47.44 188.69,-41.92 186.61,-128.2"
        style="fill-opacity:1;fill-rule:nonzero;stroke:none"
        id="path16" /><path class="sphere-fill"
        d="m 1462.11,1255.57 c 39.03,27.23 105.93,21.59 155.17,-13.17 38.77,-27.36 79.56,-53.33 93.65,-102.72 9.07,-31.79 17.48,-70.5 1.84,-95.55 -15.54,-24.89 -21.69,-61.751 -61.08,-72.482 -32.99,-8.976 -62.76,-13.046 -94.65,0.071 -13.37,5.511 -27.99,11.14 -42.07,11.222 -51.24,0.297 -67.03,41.289 -86.4,75.479 -17.06,30.1 -25.01,63.92 -27.56,99.68 -3.17,44.31 17.02,71.49 52.52,91.78 2.98,1.7 5.74,3.76 8.58,5.69"
        style="fill-opacity:1;fill-rule:nonzero;stroke:none"
        id="path18" /><path class="sphere-fill"
        d="m 851.52,1829.15 c -5.625,-29.05 -35.043,-68.95 -84.04,-90.63 -62.414,-27.63 -125.277,-20.96 -179.617,19.7 -20.84,15.6 -27.769,46.49 -31.105,74.05 -1.656,13.67 -0.563,27.71 -0.176,41.57 1.348,48.76 16.504,67.79 62.676,86.54 43.945,17.85 87.847,30.5 134.793,13.77 52.219,-18.6 103.265,-50.68 97.469,-145"
        style="fill-opacity:1;fill-rule:nonzero;stroke:none"
        id="path20" /><path class="sphere-fill"
        d="m 2128.67,1850.59 c 8.22,-42.25 -38.92,-115.97 -73.54,-140.12 -26.89,-18.75 -53.05,-28.31 -84.65,-31.2 -13.74,-1.26 -26.24,0.95 -37.82,4.65 -57.17,18.28 -115.14,36.53 -147.84,93.4 -11.68,20.32 -14.52,43.27 -16.86,66.59 -3.76,37.29 6.04,73.22 13.45,108.18 10,47.11 33.49,85.68 85.36,106.44 61.1,24.45 107.35,-2.75 155.69,-28.44 16.86,-8.96 83.34,-61.95 106.21,-179.5"
        style="fill-opacity:1;fill-rule:nonzero;stroke:none"
        id="path22" /><path class="sphere-fill"
        d="m 2337.67,907.68 c -40.99,13.121 -82.95,89.898 -87.46,131.87 -3.51,32.6 0.69,60.13 13.35,89.22 5.51,12.65 13.46,22.55 22.28,30.92 43.52,41.34 87.4,83.38 152.99,84.69 23.44,0.46 44.92,-8.09 66.5,-17.25 34.5,-14.65 61.28,-40.51 88.36,-63.83 36.5,-31.42 59.02,-70.58 52.27,-126.03 -7.96,-65.34 -54.05,-92.801 -99.83,-122.821 -15.96,-10.469 -94.39,-43.269 -208.46,-6.769"
        style="fill-opacity:1;fill-rule:nonzero;stroke:none"
        id="path24" /><path class="sphere-fill"
        d="m 1837.83,663.031 c 8.21,-42.25 -38.93,-115.972 -73.55,-140.121 -26.89,-18.75 -53.05,-28.308 -84.64,-31.199 -13.74,-1.262 -26.24,0.949 -37.82,4.648 -57.18,18.282 -115.15,36.532 -147.84,93.403 -11.68,20.328 -14.52,43.269 -16.87,66.597 -3.75,37.289 6.04,73.211 13.46,108.172 9.99,47.11 33.49,85.688 85.35,106.438 61.11,24.461 107.36,-2.75 155.69,-28.438 16.86,-8.961 83.35,-61.941 106.22,-179.5"
        style="fill-opacity:1;fill-rule:nonzero;stroke:none"
        id="path26" /><path class="sphere-fill"
        d="m 1321.15,1624.46 c 42.81,4.52 112.16,-48.83 133.22,-85.42 16.35,-28.41 23.6,-55.3 23.74,-87.03 0.07,-13.8 -3.22,-26.06 -7.91,-37.27 -23.17,-55.38 -46.37,-111.55 -105.87,-139.18 -21.26,-9.88 -44.36,-10.72 -67.8,-11.03 -37.48,-0.51 -72.41,12.36 -106.6,22.78 -46.07,14.04 -82.46,40.79 -98.65,94.27 -19.06,62.99 12.05,106.71 41.84,152.63 10.39,16.02 68.94,77.66 188.03,90.25"
        style="fill-opacity:1;fill-rule:nonzero;stroke:none"
        id="path28" /><path class="sphere-fill"
        d="m 1128.66,2613.53 c 15.63,40.11 94.87,77.23 137.04,79.14 32.75,1.48 59.96,-4.42 88.22,-18.86 12.28,-6.28 21.67,-14.83 29.48,-24.15 38.56,-46 77.81,-92.4 75.04,-157.94 -0.98,-23.42 -10.84,-44.33 -21.33,-65.3 -16.75,-33.53 -44.22,-58.65 -69.17,-84.24 -33.62,-34.48 -74.1,-54.54 -129.03,-44.36 -64.72,11.98 -89.27,59.69 -116.4,107.23 -9.46,16.59 -37.34,96.9 6.15,208.48"
        style="fill-opacity:1;fill-rule:nonzero;stroke:none"
        id="path30" /><path class="sphere-fill"
        d="m 2356.36,1748 c 23.35,2.47 61.2,-26.64 72.69,-46.6 8.92,-15.51 12.88,-30.18 12.96,-47.49 0.03,-7.53 -1.76,-14.22 -4.33,-20.34 -12.64,-30.22 -25.3,-60.87 -57.76,-75.95 -11.6,-5.39 -24.21,-5.85 -37,-6.02 -20.45,-0.27 -39.51,6.75 -58.17,12.43 -25.14,7.67 -45,22.26 -53.82,51.44 -10.41,34.38 6.57,58.23 22.82,83.29 5.67,8.74 37.62,42.38 102.61,49.24"
        style="fill-opacity:1;fill-rule:nonzero;stroke:none"
        id="path32" /><path class="sphere-fill"
        d="m 1950.04,1561.48 c 11.42,33.8 75.63,67.54 110.47,70.72 27.06,2.47 49.82,-1.38 73.76,-12.26 10.42,-4.74 18.51,-11.46 25.33,-18.88 33.67,-36.62 67.93,-73.55 68.13,-127.93 0.08,-19.43 -7.3,-37.12 -15.18,-54.88 -12.6,-28.39 -34.4,-50.24 -54.08,-72.38 -26.53,-29.82 -59.29,-47.96 -105.16,-41.62 -54.04,7.46 -76.18,46.03 -100.45,84.37 -8.46,13.37 -34.59,78.82 -2.82,172.86"
        style="fill-opacity:1;fill-rule:nonzero;stroke:none"
        id="path34" /><path class="sphere-fill"
        d="m 1885.05,1340.82 c 23.36,2.47 61.2,-26.65 72.69,-46.61 8.93,-15.51 12.89,-30.18 12.96,-47.49 0.03,-7.53 -1.76,-14.22 -4.32,-20.34 -12.64,-30.22 -25.3,-60.87 -57.76,-75.95 -11.61,-5.39 -24.21,-5.84 -37.01,-6.01 -20.44,-0.28 -39.51,6.74 -58.16,12.43 -25.14,7.66 -45,22.26 -53.83,51.43 -10.4,34.38 6.58,58.23 22.83,83.29 5.67,8.74 37.62,42.38 102.6,49.25"
        style="fill-opacity:1;fill-rule:nonzero;stroke:none"
        id="path36" /><path class="sphere-fill"
        d="m 1769.99,996.621 c 14.03,45.479 70.24,82.169 130.45,85.059 47.4,2.26 95.53,6.88 137.02,-23.4 26.7,-19.49 57.14,-44.83 60.21,-74.202 3.06,-29.187 20.88,-62.027 -3.58,-94.719 -20.48,-27.379 -41.45,-48.89 -74.67,-58.16 -13.93,-3.89 -28.92,-8.437 -40.07,-17.027 -40.59,-31.281 -78.25,-8.672 -114.55,6.367 -31.97,13.242 -59.04,35.02 -83.04,61.641 -29.75,32.992 -30.55,66.84 -15.03,104.679 1.29,3.161 2.2,6.493 3.26,9.762"
        style="fill-opacity:1;fill-rule:nonzero;stroke:none"
        id="path38" /><path class="sphere-fill"
        d="m 1308.62,1899.36 c -7.2,44.3 44.31,119.58 81.17,143.62 28.63,18.66 56.19,27.78 89.21,29.76 14.36,0.87 27.31,-1.84 39.26,-6.07 58.98,-20.9 118.79,-41.79 151.01,-102.12 11.51,-21.55 13.72,-45.55 15.41,-69.93 2.7,-38.98 -8.67,-76.09 -17.53,-112.27 -11.94,-48.77 -37.67,-88.2 -92.39,-108.15 -64.46,-23.5 -111.77,6.35 -161.3,34.68 -17.27,9.89 -84.83,67.25 -104.84,190.48"
        style="fill-opacity:1;fill-rule:nonzero;stroke:none"
        id="path40" /><path class="sphere-fill"
        d="m 1567.67,2130.69 c -40.99,13.12 -82.95,89.91 -87.46,131.88 -3.51,32.59 0.69,60.13 13.35,89.22 5.51,12.65 13.46,22.54 22.28,30.92 43.52,41.33 87.4,83.38 152.99,84.68 23.44,0.47 44.92,-8.08 66.5,-17.25 34.5,-14.64 61.28,-40.51 88.36,-63.82 36.5,-31.43 59.02,-70.58 52.27,-126.04 -7.96,-65.33 -54.05,-92.8 -99.83,-122.82 -15.96,-10.46 -94.39,-43.26 -208.46,-6.77"
        style="fill-opacity:1;fill-rule:nonzero;stroke:none"
        id="path42" /><path class="sphere-fill"
        d="m 748.449,2191.11 c -15.461,40.28 18.262,121.25 48.242,151.11 23.286,23.19 47.446,37.17 78.137,45.52 13.348,3.63 26.07,3.62 38.145,1.98 59.621,-8.1 120.027,-16.03 162.187,-66.5 15.06,-18.03 21.85,-40.18 28.23,-62.81 10.18,-36.16 6.76,-73.32 5.52,-109.12 -1.67,-48.25 -18.16,-90.42 -65.76,-119.93 -56.068,-34.76 -106.455,-15.95 -158.638,1.01 -18.199,5.92 -93.047,46.66 -136.063,158.74"
        style="fill-opacity:1;fill-rule:nonzero;stroke:none"
        id="path44" /><path class="sphere-fill"
        d="m 1316.23,2240.82 c 23.36,2.47 61.2,-26.65 72.69,-46.61 8.92,-15.51 12.88,-30.18 12.96,-47.49 0.03,-7.53 -1.76,-14.22 -4.32,-20.34 -12.64,-30.22 -25.3,-60.87 -57.77,-75.95 -11.6,-5.39 -24.2,-5.84 -37,-6.02 -20.45,-0.27 -39.51,6.75 -58.16,12.44 -25.14,7.66 -45,22.26 -53.83,51.44 -10.4,34.37 6.58,58.23 22.83,83.28 5.67,8.74 37.62,42.38 102.6,49.25"
        style="fill-opacity:1;fill-rule:nonzero;stroke:none"
        id="path46" /><path class="sphere-fill"
        d="m 2046.64,2346.8 c 19.46,20.59 76.97,23.61 103.16,14.33 20.34,-7.2 35.48,-17.54 49.13,-33.34 5.94,-6.87 9.54,-14.4 12,-22.02 12.13,-37.59 24.57,-75.61 6.66,-114.89 -6.4,-14.04 -17.59,-24.35 -29.17,-34.54 -18.52,-16.3 -41.49,-24.82 -63.04,-34.25 -29.04,-12.7 -58.69,-14.91 -89.67,4.89 -36.49,23.33 -39.66,58.5 -44.43,94.21 -1.66,12.46 1.22,68.33 55.36,125.61"
        style="fill-opacity:1;fill-rule:nonzero;stroke:none"
        id="path48" /><path class="sphere-fill"
        d="m 1156.36,694.75 c 23.35,2.469 61.2,-26.641 72.69,-46.602 8.92,-15.507 12.88,-30.179 12.96,-47.488 0.03,-7.531 -1.76,-14.219 -4.33,-20.34 -12.64,-30.218 -25.3,-60.871 -57.76,-75.949 -11.6,-5.391 -24.21,-5.851 -37,-6.019 -20.45,-0.274 -39.51,6.75 -58.17,12.429 -25.14,7.668 -45,22.258 -53.82,51.438 -10.41,34.383 6.57,58.23 22.82,83.293 5.67,8.738 37.62,42.367 102.61,49.238"
        style="fill-opacity:1;fill-rule:nonzero;stroke:none"
        id="path50" /><path class="sphere-fill"
        d="m 685.859,1357.25 c 21.254,44.8 115.34,80.94 163.946,79.68 37.75,-0.99 68.539,-10 99.812,-28.91 13.602,-8.22 23.68,-18.81 31.891,-30.16 40.532,-56.01 81.812,-112.55 73.262,-187.63 -3.05,-26.83 -16.1,-50.04 -29.87,-73.28 -22,-37.14 -55.623,-63.75 -86.384,-91.1 -41.461,-36.862 -89.61,-56.58 -151.891,-40.389 -73.371,19.079 -97.672,75.909 -124.934,132.759 -9.507,19.83 -34.953,114.4 24.168,239.03"
        style="fill-opacity:1;fill-rule:nonzero;stroke:none"
        id="path52" /><path class="sphere-fill"
        d="m 1170.9,1110.96 c 40.23,15.32 120.92,-18.52 150.63,-48.51 23.08,-23.29 36.97,-47.42 45.22,-78.059 3.59,-13.332 3.54,-26.02 1.88,-38.063 -8.24,-59.457 -16.31,-119.699 -66.76,-161.629 -18.03,-14.98 -40.15,-21.699 -62.73,-28 -36.1,-10.07 -73.16,-6.558 -108.88,-5.23 -48.13,1.793 -90.15,18.34 -119.47,65.902 -34.536,56.027 -15.642,106.25 1.41,158.258 5.95,18.141 46.79,92.711 158.7,135.331"
        style="fill-opacity:1;fill-rule:nonzero;stroke:none"
        id="path54" /><path class="sphere-fill"
        d="m 1333.25,505.48 c 16.31,16.899 64.02,18.899 85.65,10.981 16.8,-6.152 29.26,-14.852 40.44,-28.063 4.86,-5.75 7.79,-12.027 9.76,-18.367 9.73,-31.269 19.71,-62.89 4.53,-95.312 -5.43,-11.578 -14.8,-20.028 -24.49,-28.379 -15.49,-13.352 -34.61,-20.219 -52.56,-27.84 -24.19,-10.281 -48.78,-11.859 -74.29,4.828 -30.06,19.66 -32.38,48.844 -36.02,78.492 -1.28,10.34 1.6,56.641 46.98,103.66"
        style="fill-opacity:1;fill-rule:nonzero;stroke:none"
        id="path56" /><path class="sphere-fill"
        d="m 1104.56,1653.47 c -32.64,-10.45 -95.34,19.92 -117.673,45.04 -17.348,19.5 -27.356,39.29 -32.598,64 -2.281,10.75 -1.703,20.84 0.141,30.35 9.093,46.91 18.097,94.46 60.01,125.63 14.97,11.14 32.85,15.53 51.08,19.57 29.13,6.46 58.45,2.08 86.78,-0.51 38.19,-3.49 70.89,-18.46 92.16,-57.53 25.06,-46.02 7.88,-85.14 -7.91,-125.76 -5.51,-14.17 -41.18,-71.7 -131.99,-100.79"
        style="fill-opacity:1;fill-rule:nonzero;stroke:none"
        id="path58" /><path class="sphere-fill"
        d="m 555.461,1341.91 c -32.637,-10.46 -95.34,19.92 -117.676,45.03 -17.347,19.51 -27.351,39.29 -32.597,64.01 -2.282,10.74 -1.704,20.83 0.14,30.34 9.098,46.92 18.102,94.46 60.012,125.63 14.976,11.14 32.851,15.53 51.078,19.57 29.133,6.46 58.449,2.08 86.785,-0.51 38.188,-3.49 70.891,-18.45 92.16,-57.52 25.055,-46.03 7.875,-85.15 -7.914,-125.77 -5.508,-14.17 -41.176,-71.7 -131.988,-100.78"
        style="fill-opacity:1;fill-rule:nonzero;stroke:none"
        id="path60" /><path class="sphere-fill"
        d="m 810.387,1516.87 c -17.75,15.38 -22.317,62.91 -15.574,84.94 5.238,17.1 13.257,30.01 25.851,41.89 5.481,5.16 11.594,8.42 17.813,10.73 30.707,11.39 61.75,23.06 94.929,9.64 11.86,-4.8 20.801,-13.7 29.66,-22.93 14.161,-14.75 22.047,-33.47 30.629,-50.98 11.565,-23.6 14.455,-48.08 -0.836,-74.45 -18.015,-31.07 -47.035,-34.95 -76.441,-40.19 -10.258,-1.82 -56.645,-1.44 -106.031,41.35"
        style="fill-opacity:1;fill-rule:nonzero;stroke:none"
        id="path62" /><path class="sphere-fill"
        d="m 2072.11,1157.74 c -9.06,7.86 -11.39,32.12 -7.94,43.36 2.67,8.74 6.76,15.33 13.19,21.39 2.8,2.64 5.92,4.3 9.1,5.48 15.67,5.81 31.52,11.77 48.46,4.92 6.05,-2.45 10.62,-6.99 15.14,-11.7 7.23,-7.54 11.26,-17.09 15.64,-26.03 5.9,-12.05 7.38,-24.55 -0.43,-38.01 -9.2,-15.86 -24.01,-17.84 -39.02,-20.52 -5.24,-0.93 -28.92,-0.73 -54.14,21.11"
        style="fill-opacity:1;fill-rule:nonzero;stroke:none"
        id="path64" /><path class="sphere-fill"
        d="m 2290.64,1480.28 c 12.94,19.6 59.48,30.3 82.19,26.47 17.64,-2.97 31.48,-9.24 44.89,-20.19 5.84,-4.76 9.86,-10.4 12.96,-16.27 15.28,-28.96 30.89,-58.23 21.89,-92.87 -3.22,-12.38 -10.88,-22.4 -18.88,-32.39 -12.79,-15.95 -30.33,-26.2 -46.58,-36.99 -21.9,-14.53 -45.79,-20.58 -73.93,-8.84 -33.14,13.83 -40.76,42.1 -49.77,70.58 -3.14,9.93 -8.79,55.97 27.23,110.5"
        style="fill-opacity:1;fill-rule:nonzero;stroke:none"
        id="path66" /><path class="sphere-fill"
        d="m 2239.23,846.891 c 30.18,3.187 79.07,-34.43 93.91,-60.219 11.53,-20.031 16.65,-38.992 16.74,-61.352 0.05,-9.73 -2.27,-18.379 -5.58,-26.281 -16.33,-39.039 -32.69,-78.641 -74.63,-98.117 -14.99,-6.973 -31.28,-7.563 -47.8,-7.781 -26.42,-0.36 -51.05,8.718 -75.15,16.058 -32.48,9.903 -58.14,28.762 -69.55,66.461 -13.44,44.41 8.5,75.231 29.5,107.61 7.32,11.289 48.6,54.742 132.56,63.621"
        style="fill-opacity:1;fill-rule:nonzero;stroke:none"
        id="path68" /><path class="sphere-fill"
        d="m 1785.97,162.82 c -10.34,-33.129 -64.92,-62.73 -94.19,-63.6208 -22.74,-0.6875 -41.73,4.6718 -61.54,17.1598 -8.62,5.43 -15.25,12.711 -20.8,20.59 -27.38,38.942 -55.25,78.231 -54.18,132.762 0.39,19.488 6.97,36.73 13.98,54.019 11.22,27.641 29.98,48.11 46.99,69 22.91,28.161 50.78,44.18 89.08,34.801 45.12,-11.051 62.8,-51.179 82.25,-91.222 6.79,-13.957 27.2,-81.297 -1.59,-173.489"
        style="fill-opacity:1;fill-rule:nonzero;stroke:none"
        id="path70" /><path class="sphere-fill"
        d="m 1560.18,2679.83 c 5.22,22.9 45.01,49.29 67.62,53.7 17.56,3.43 32.72,2.43 49.13,-3.1 7.13,-2.41 12.88,-6.27 17.84,-10.67 24.5,-21.74 49.41,-43.64 53.17,-79.23 1.35,-12.73 -2.3,-24.8 -6.27,-36.96 -6.36,-19.44 -19.17,-35.2 -30.59,-51.02 -15.38,-21.3 -35.62,-35.37 -66.08,-34.28 -35.89,1.28 -52.97,25.06 -71.43,48.54 -6.43,8.19 -27.92,49.31 -13.39,113.02"
        style="fill-opacity:1;fill-rule:nonzero;stroke:none"
        id="path72" /><path class="sphere-fill"
        d="m 1782.6,2515.41 c -9.06,7.86 -11.39,32.12 -7.95,43.36 2.68,8.74 6.77,15.33 13.2,21.39 2.8,2.64 5.92,4.3 9.09,5.48 15.68,5.82 31.53,11.78 48.47,4.92 6.05,-2.45 10.62,-6.99 15.14,-11.7 7.23,-7.54 11.25,-17.09 15.63,-26.03 5.91,-12.05 7.39,-24.54 -0.42,-38.01 -9.2,-15.86 -24.01,-17.84 -39.03,-20.52 -5.23,-0.93 -28.92,-0.73 -54.13,21.11"
        style="fill-opacity:1;fill-rule:nonzero;stroke:none"
        id="path74" /></g></g></svg>