<?xml version="1.0" encoding="UTF-8"?>
<svg
   xmlns:dc="http://purl.org/dc/elements/1.1/"
   xmlns:cc="http://creativecommons.org/ns#"
   xmlns:rdf="http://www.w3.org/1999/02/22-rdf-syntax-ns#"
   xmlns:svg="http://www.w3.org/2000/svg"
   xmlns="http://www.w3.org/2000/svg"
   viewBox="0 0 377.94666 377.94666"
   height="377.94666"
   width="377.94666"
   class="sphere-3"
   xml:space="preserve"
   id="svg2"
   version="1.1"><metadata
     id="metadata8"><rdf:RDF><cc:Work
         rdf:about=""><dc:format>image/svg+xml</dc:format><dc:type
           rdf:resource="http://purl.org/dc/dcmitype/StillImage" /></cc:Work></rdf:RDF></metadata><defs
     id="defs6" /><g
     transform="matrix(1.3333333,0,0,-1.3333333,0,377.94667)"
     id="g10"><g
       transform="scale(0.1)"
       id="g12"><path
         id="path14"
         class="sphere-fill"
         style="fill-opacity:1;fill-rule:nonzero;stroke:none"
         d="M 2467.91,1250.02 C 2514.18,1012.12 2248.76,597.07 2053.83,461.102 1902.43,355.5 1755.15,301.691 1577.24,285.398 1499.87,278.32 1429.5,290.77 1364.3,311.609 1042.38,414.512 715.984,517.262 531.918,837.48 c -65.777,114.442 -81.754,243.62 -94.973,374.96 -21.125,209.95 34.008,412.2 75.754,609.04 56.27,265.27 188.555,482.47 480.598,599.34 344.043,137.68 604.453,-15.48 876.603,-160.13 94.91,-50.45 469.25,-348.78 598.01,-1010.67" /></g></g></svg>